<svg id="Capa_1" data-name="Capa 1" xmlns="http://www.w3.org/2000/svg" viewBox="0 0 654.57 1200"><defs><style>.cls-1{fill:#034256;}</style></defs><title>Sin título-2</title><path class="cls-1" d="M658.68,318.3c-.53-26.59-4.79-52.39-11.61-77.8a326.79,326.79,0,0,0-32.13-77.61A332,332,0,0,0,577.06,110c-13.86-15.92-29.58-29.87-46.27-42.78A317.25,317.25,0,0,0,460,25.86a329.3,329.3,0,0,0-183.59-21C232.94,12.59,192.24,28,155,52.42c-29.7,19.42-56.1,42.45-78.08,70.24C41,168,17.93,219.35,8.47,276.81a335,335,0,0,0-4.24,54,300.81,300.81,0,0,0,3.23,44.79C12.87,412,22.84,447.09,38.31,480.36c18.42,39.63,43.56,75,70.51,109.18,26.45,33.42,54.58,65.43,82.06,98,11.12,13.19,22.41,26.33,32.38,40.37,10.9,15.34,20.81,31.44,30.28,47.7,8.29,14.21,16.08,28.67,21.68,43.95,2.16,22.85,4,45.69,5.73,68.17,1.5,19,3.05,38.69,4.78,58a8.77,8.77,0,0,1-.49,3.77c-10.14,11.77-9.58,23-5,31.06-1.73,5.48-3.49,10.79-5.22,16-4.9,14.74-9.53,28.67-12.38,43.2-2.32,11.83-.94,20.6,4.23,26.79a23.8,23.8,0,0,0,11.36,7.33c-8.48,10.87-15.74,24.23-8.45,42.56,7.84,19.68,18.18,34.42,32.51,46.43l7.75,6.49,5.64-8.43c16.12-24.13,22.65-50.56,28.69-76.24,2.13,10.73,4.36,21.73,7,32.52,5.12,20.55,13.64,46.73,34.22,66.87A55.52,55.52,0,0,0,449,1194.32a56.12,56.12,0,0,0,9.42-5.9c20.6-16,25.68-44.88,12.07-68.76a133.48,133.48,0,0,0-23-29.13c-34-32.93-57.58-67.37-72-105.12,4.88-7,8.5-14.54,7-22.52s-7.65-13.67-14.86-18.47c2.85-39.9,6.71-84,13.48-129.19a166.08,166.08,0,0,1,17.14-31.57c28.18-40.31,55.82-80.87,89.08-117.46,29.62-32.64,57.09-67.31,83.26-102.93,18-24.48,36.19-48.69,50.33-75.78,15.85-30.44,26.17-62.78,32.82-96.25C658.57,367.26,659.11,342.83,658.68,318.3Zm-226.4,813.09c9,10.21,7.29,17.61,5.25,22.29a12.73,12.73,0,0,1-5.83,6.5,7.74,7.74,0,0,1-5.83.55c-8.45-2.72-16.6-8.32-19-13.07-10.19-20.47-17.6-42.78-23.5-61.89-1.36-4.41-2.44-8.91-3.4-13.5C398,1092.57,415,1111.74,432.28,1131.39ZM113.84,505.16c-43-60.63-51.35-98.62-51.35-98.62s114.9-30.72,223.26-65.64C409.64,301,502.34,251.11,453.9,173.5c-34-54.42-146.53-74.29-240.26-44.93-124.75,39.09-162,204.92-162,204.92S40.83,175.71,205.69,95.7C390.84,5.84,568.42,139.28,570.32,206c3.86,136.24-385.6,242.9-385.6,242.9l14.1,156.6S143.12,546.42,113.84,505.16Zm189.1,611.17a143,143,0,0,1-6.14-13.49c-.16-1.87,1.8-6.9,2.37-8.42a20.83,20.83,0,0,1,1.82-2,26.15,26.15,0,0,0,5.24-6.93c.59-1.24,1.31-2.58,2-3.94,3.86-7.28,8.24-15.52,4.71-23.2-3.21-7-10.39-10-16.72-12.6-1.54-.63-3-1.23-4.3-1.85.47-4.71,1-9.48,1.63-14.12a37.07,37.07,0,0,1,2.54-8.06c6.38-15.93,10.17-25,13.94-26.88,3.1-1.55,10.07-1,20.6-.28l.85.05C324.8,1036.65,317.91,1076.84,302.94,1116.33ZM339.66,928l-.05.65c-.42,5.06-.84,10.25-1.44,12.36-2.18.5-7.5.59-12.67.66-3.4,0-6.79,0-10.56,0q-1-9-2-17.88c-2.09-18.94-4.07-36.84-5.92-55.06-.33-3.31-.66-6.65-1-10,12.26.41,27.4.94,40,1.34C343.43,883.79,341.39,906.6,339.66,928Zm82-227.59A69.89,69.89,0,0,1,413.28,714q-9.09,11.81-17.58,24c-11.84,17-22.84,34.67-33.26,52.69a48.65,48.65,0,0,1-8.64,11.36c-5.66,5.29-13.29,8.76-24.34,7.63-12,1.29-21.17-3.31-28.18-12.18a49.16,49.16,0,0,1-3.59-5.24c-3.93-6.59-8-13.12-11.49-19.94A412.68,412.68,0,0,0,264.74,735q-8.92-13.78-19-26.82C241.23,702.44,239,696.44,242,689c2-5,5.43-8.57,9.85-10.16a17.27,17.27,0,0,1,8.9-.72q10.81,1.71,21.63,3.08c26.38,3.28,52.88,4.66,79.52,2.44,6-.5,12-1,18-1.75a189.57,189.57,0,0,0,22.57-3.84,15.81,15.81,0,0,1,9,.47C420.05,681.49,426,691.21,421.71,700.45ZM589.5,422.72c-25.67,64.64-140,180.25-140,180.25L329.68,493.75,324.8,610.42l-109.51-2L201.85,463.17l153.79-54.71,105,97s55.5-47.42,89.06-111.81C579.29,337,589.5,226.38,589.5,226.38S636.36,304.74,589.5,422.72Z" transform="translate(-4.23)"/></svg>